<svg width="24" height="24" viewBox="0 0 24 24" fill="none" xmlns="http://www.w3.org/2000/svg">
<path d="M20.5576 2C21.3543 2.00002 22 2.64575 22 3.44238V20.5576C22 21.3543 21.3543 22 20.5576 22H3.44238C2.64575 22 2.00002 21.3543 2 20.5576V3.44238C2.00002 2.64575 2.64575 2.00002 3.44238 2H20.5576ZM6.6582 9.79004V17.1172H9.09375V9.79004H6.6582ZM15.0723 9.61816C13.7803 9.61816 13.2006 10.3279 12.877 10.8271V9.79004H10.4424C10.4743 10.4772 10.4424 17.1123 10.4424 17.1172H12.877V13.0254C12.877 12.8064 12.8926 12.5872 12.957 12.4307C13.1332 11.9933 13.5344 11.54 14.207 11.54C15.0881 11.5401 15.4404 12.2123 15.4404 13.1973V17.1172H17.876V12.916C17.876 10.6656 16.6745 9.61826 15.0723 9.61816ZM7.89258 6.25781C7.05964 6.25784 6.51485 6.80466 6.51465 7.52344C6.51465 8.22649 7.04323 8.78993 7.86035 8.79004H7.87695C8.72597 8.78982 9.25391 8.22643 9.25391 7.52344C9.23785 6.80464 8.72555 6.25781 7.89258 6.25781Z" fill="#191717"/>
</svg>
